<svg width="28" height="29" viewBox="0 0 28 29" fill="none" xmlns="http://www.w3.org/2000/svg">
<path d="M21.0823 9.77442C20.6199 9.97339 20.1339 10.1119 19.6362 10.1866C19.8689 10.1468 20.2113 9.72788 20.3476 9.55834C20.5546 9.3026 20.7125 9.01065 20.813 8.69732C20.813 8.67405 20.8363 8.64081 20.813 8.62418C20.8013 8.61778 20.7881 8.61443 20.7748 8.61443C20.7614 8.61443 20.7483 8.61778 20.7365 8.62418C20.196 8.91687 19.6208 9.14026 19.0245 9.28906C19.0037 9.29541 18.9816 9.29598 18.9605 9.29071C18.9394 9.28544 18.9201 9.27453 18.9048 9.25914C18.8584 9.20387 18.8084 9.15167 18.7552 9.1029C18.512 8.88497 18.236 8.7066 17.9374 8.57432C17.5343 8.40896 17.099 8.33734 16.6642 8.36488C16.2423 8.39153 15.8304 8.50469 15.4541 8.69732C15.0835 8.90042 14.7579 9.17632 14.4967 9.50847C14.2219 9.85033 14.0235 10.2471 13.9149 10.672C13.8253 11.0762 13.8152 11.494 13.885 11.902C13.885 11.9718 13.885 11.9818 13.8251 11.9718C11.4549 11.6228 9.51009 10.7817 7.92103 8.97657C7.85122 8.89678 7.81465 8.89678 7.75814 8.97657C7.06667 10.0271 7.40243 11.6893 8.26677 12.5104C8.38312 12.6201 8.5028 12.7265 8.62913 12.8262C8.23283 12.7981 7.84622 12.6907 7.49219 12.5104C7.4257 12.4672 7.38913 12.4904 7.38581 12.5702C7.37638 12.6808 7.37638 12.7921 7.38581 12.9027C7.45517 13.4328 7.66408 13.9349 7.99118 14.3578C8.31827 14.7807 8.75181 15.1091 9.24746 15.3095C9.36829 15.3613 9.49419 15.4003 9.62312 15.4259C9.25625 15.4981 8.87997 15.5093 8.50945 15.4591C8.42966 15.4425 8.39974 15.4857 8.42966 15.5622C8.91835 16.8919 9.97883 17.2975 10.7567 17.5236C10.8631 17.5402 10.9695 17.5402 11.0892 17.5668C11.0892 17.5668 11.0892 17.5668 11.0692 17.5867C10.8398 18.0056 9.91234 18.2882 9.48682 18.4344C8.71013 18.7134 7.88204 18.8201 7.06002 18.7469C6.93037 18.727 6.90045 18.7303 6.8672 18.7469C6.83396 18.7636 6.8672 18.8001 6.90377 18.8334C7.06999 18.9431 7.23621 19.0395 7.40908 19.1326C7.92371 19.4133 8.46777 19.6362 9.03138 19.7974C11.9502 20.6019 15.2347 20.0102 17.4254 17.8327C19.1475 16.124 19.7525 13.767 19.7525 11.4067C19.7525 11.3169 19.8622 11.2637 19.9254 11.2172C20.361 10.8777 20.7451 10.4769 21.0656 10.0271C21.1211 9.96003 21.1496 9.87466 21.1454 9.78772C21.1454 9.73785 21.1454 9.74783 21.0823 9.77442Z" fill="white"/>
</svg>
