<svg width="17" height="18" viewBox="0 0 17 18" fill="none" xmlns="http://www.w3.org/2000/svg">
<path d="M12.206 10.8636C12.274 10.3026 12.325 9.74157 12.325 9.16357C12.325 8.58557 12.274 8.02457 12.206 7.46357H15.079C15.215 8.00757 15.3 8.57707 15.3 9.16357C15.3 9.75007 15.215 10.3196 15.079 10.8636M10.7015 15.5896C11.2115 14.6461 11.6025 13.6261 11.8745 12.5636H14.382C13.5585 13.9816 12.252 15.0558 10.7015 15.5896ZM10.489 10.8636H6.511C6.426 10.3026 6.375 9.74157 6.375 9.16357C6.375 8.58557 6.426 8.01607 6.511 7.46357H10.489C10.5655 8.01607 10.625 8.58557 10.625 9.16357C10.625 9.74157 10.5655 10.3026 10.489 10.8636ZM8.5 15.9296C7.7945 14.9096 7.225 13.7791 6.8765 12.5636H10.1235C9.775 13.7791 9.2055 14.9096 8.5 15.9296ZM5.1 5.76357H2.618C3.43303 4.34171 4.73858 3.26584 6.29 2.73757C5.78 3.68107 5.3975 4.70107 5.1 5.76357ZM2.618 12.5636H5.1C5.3975 13.6261 5.78 14.6461 6.29 15.5896C4.74183 15.0555 3.43812 13.9811 2.618 12.5636ZM1.921 10.8636C1.785 10.3196 1.7 9.75007 1.7 9.16357C1.7 8.57707 1.785 8.00757 1.921 7.46357H4.794C4.726 8.02457 4.675 8.58557 4.675 9.16357C4.675 9.74157 4.726 10.3026 4.794 10.8636M8.5 2.38907C9.2055 3.40907 9.775 4.54807 10.1235 5.76357H6.8765C7.225 4.54807 7.7945 3.40907 8.5 2.38907ZM14.382 5.76357H11.8745C11.6085 4.71081 11.2145 3.69459 10.7015 2.73757C12.2655 3.27307 13.566 4.35257 14.382 5.76357ZM8.5 0.663574C3.7995 0.663574 0 4.48857 0 9.16357C0 11.4179 0.895533 13.5799 2.48959 15.174C3.27889 15.9633 4.21592 16.5894 5.24719 17.0166C6.27846 17.4437 7.38376 17.6636 8.5 17.6636C10.7543 17.6636 12.9163 16.768 14.5104 15.174C16.1045 13.5799 17 11.4179 17 9.16357C17 8.04734 16.7801 6.94203 16.353 5.91076C15.9258 4.8795 15.2997 3.94246 14.5104 3.15317C13.7211 2.36387 12.7841 1.73776 11.7528 1.3106C10.7215 0.883433 9.61624 0.663574 8.5 0.663574Z" fill="var(--primary-color)"/>
</svg>
