<svg width="28" height="29" viewBox="0 0 28 29" fill="none" xmlns="http://www.w3.org/2000/svg">
<path d="M21.7876 10.3989C21.6047 9.7116 21.0639 9.16942 20.3759 8.9836C19.1318 8.65015 14.1402 8.65015 14.1402 8.65015C14.1402 8.65015 9.15107 8.65015 7.90443 8.9836C7.21891 9.16687 6.67811 9.70906 6.49276 10.3989C6.16016 11.6461 6.16016 14.2501 6.16016 14.2501C6.16016 14.2501 6.16016 16.8541 6.49276 18.1014C6.67557 18.7887 7.21637 19.3309 7.90443 19.5167C9.15107 19.8501 14.1402 19.8501 14.1402 19.8501C14.1402 19.8501 19.1318 19.8501 20.3759 19.5167C21.0614 19.3334 21.6022 18.7912 21.7876 18.1014C22.1202 16.8541 22.1202 14.2501 22.1202 14.2501C22.1202 14.2501 22.1202 11.6461 21.7876 10.3989Z" fill="white"/>
<path d="M12.5457 16.6505L16.6918 14.2501L12.5457 11.8498V16.6505Z" fill="var(--primary-color)"/>
</svg>
