<svg width="19" height="17" viewBox="0 0 19 17" fill="none" xmlns="http://www.w3.org/2000/svg">
<path fill-rule="evenodd" clip-rule="evenodd" d="M13.596 0.496732C13.1223 0.414805 12.6195 0.440916 12.1697 0.519248C11.6854 0.603886 11.2161 0.757897 10.8609 0.950572C10.1593 1.33268 9.57599 1.90617 9.17611 2.60685C8.77623 3.30754 8.57562 4.10783 8.59673 4.91808C6.16575 4.58548 3.9511 3.31968 2.40526 1.37919C2.33735 1.29425 2.25024 1.22742 2.15132 1.18439C2.05246 1.14142 1.94476 1.12356 1.83763 1.13246C1.73044 1.1413 1.62702 1.17661 1.53626 1.23525C1.44544 1.29396 1.37001 1.37424 1.31651 1.46925C0.93959 2.13846 0.741529 2.89666 0.74205 3.66819C0.740893 4.34878 0.896148 5.02016 1.19544 5.62855C1.05499 5.66751 0.931086 5.75244 0.842757 5.87026C0.754428 5.98808 0.706648 6.13225 0.706706 6.28048V6.32734C0.70954 6.9395 0.838707 7.54422 1.08576 8.10227C1.33288 8.66026 1.69244 9.15913 2.14103 9.56635L2.13218 9.57537C2.05744 9.66319 2.00625 9.76916 1.98346 9.88304C1.96072 9.99697 1.9672 10.1149 2.00226 10.2255C2.18638 10.8032 2.48659 11.3355 2.88369 11.7885C3.2808 12.2415 3.76617 12.6053 4.30882 12.8567C3.19652 13.3829 1.9624 13.5831 0.74471 13.4348C0.59576 13.4159 0.444958 13.449 0.316948 13.5288C0.188937 13.6087 0.0912954 13.7304 0.0399871 13.874C-0.0113791 14.0177 -0.0132876 14.1749 0.0344344 14.3199C0.0822141 14.4648 0.176848 14.589 0.302834 14.6721C2.06577 15.8319 4.12007 16.4479 6.21856 16.446C7.66671 16.4607 9.10317 16.1815 10.4442 15.6244C11.7853 15.0674 13.0039 14.2439 14.0292 13.2017C15.0545 12.1596 15.8659 10.9199 16.4158 9.55486C16.9658 8.1898 17.2435 6.72684 17.2326 5.25127V5.00454C17.3387 4.84965 17.4439 4.67047 17.542 4.49395C17.6984 4.21304 17.8663 3.88521 18.0298 3.56104L18.1667 3.29003C18.4522 2.72273 18.7076 2.21667 18.8905 1.93299C18.9747 1.80291 19.0121 1.64719 18.9965 1.49218C18.9809 1.33716 18.9131 1.19246 18.8047 1.08254C18.6963 0.972616 18.554 0.904304 18.4018 0.889098C18.2496 0.873891 18.0969 0.912791 17.9697 0.999198L17.9617 1.00462C17.656 1.19176 17.3305 1.34306 16.9914 1.45575C16.6405 1.57104 16.2438 1.65208 15.8408 1.64306C15.2216 1.04122 14.4398 0.641961 13.596 0.496732Z" fill="white"/>
</svg>
