<svg width="24" height="23" viewBox="0 0 24 23" fill="none" xmlns="http://www.w3.org/2000/svg">
<path d="M1.5 3.12949C1.5 1.92387 2.47734 0.946533 3.68295 0.946533H7.80026H20.317C21.5227 0.946533 22.5 1.92387 22.5 3.12949V19.7636C22.5 20.9692 21.5227 21.9465 20.317 21.9465H3.68295C2.47734 21.9465 1.5 20.9692 1.5 19.7636V3.12949Z" fill="#AFCC36" stroke="white" stroke-width="1.3125" stroke-linecap="round" stroke-linejoin="round"/>
<path fill-rule="evenodd" clip-rule="evenodd" d="M7.62689 0.946533C3.20553 5.41694 4.30695 11.3162 7.54198 14.7286C7.77225 14.9715 7.94811 15.2738 7.94925 15.6085C7.95563 17.4873 6.24002 18.2689 6.24002 18.2689C7.5097 18.5704 8.66752 18.0554 9.65829 17.6147C9.70617 17.5934 9.75366 17.5723 9.80076 17.5514C10.4409 17.268 11.1544 17.3391 11.8165 17.5666C15.0871 18.6904 19.7045 18.6836 22.4998 16.692V19.7636C22.4998 20.9692 21.5224 21.9465 20.3168 21.9465H3.68271C2.48811 21.9465 1.51763 20.987 1.5 19.7966V3.0965C1.51763 1.9061 2.48811 0.946533 3.68271 0.946533H7.62689Z" fill="white"/>
<circle cx="19.093" cy="10.1586" r="1.30977" stroke="white" stroke-width="1.4" stroke-linecap="round" stroke-linejoin="round"/>
<circle cx="13.3313" cy="10.1582" r="1.30977" stroke="white" stroke-width="1.4" stroke-linecap="round" stroke-linejoin="round"/>
<path d="M14.6406 11.468L14.6406 8.84847" stroke="white" stroke-width="1.4" stroke-linecap="round" stroke-linejoin="round"/>
<path d="M16.2129 11.4683L16.2129 6.75308" stroke="white" stroke-width="1.4" stroke-linecap="round" stroke-linejoin="round"/>
<path d="M8.20117 7.2771H10.9299L8.31032 11.4684H10.9299" stroke="white" stroke-width="1.4" stroke-linecap="round" stroke-linejoin="round"/>
</svg>
